<svg width="32" height="32" viewBox="0 0 32 32" fill="none" xmlns="http://www.w3.org/2000/svg">
<path d="M24.5333 4.26667L21.3333 17.0667H25.6L23.4667 27.7333L32 12.8H27.7333L30.9333 4.26667H24.5333ZM2.13333 7.46667C2.13333 6.4 4.26667 6.4 4.26667 7.46667V10.1333C6.4 10.1333 5.86667 8 6.4 8C6.93333 8 6.4 10.1333 8.53333 10.1333C10.6667 10.1333 10.1333 8 10.6667 8C11.2 8 10.6667 10.1333 12.8 10.1333C14.9333 10.1333 14.4 8 14.9333 8C15.4667 8 14.9333 10.1333 17.0667 10.1333V7.46667C17.0667 6.4 19.2 6.4 19.2 7.46667V10.6667C19.2 10.6667 19.2 12.8 17.0667 12.8C14.9333 12.8 14.9333 10.6667 14.9333 10.6667C14.9333 10.6667 14.9333 12.8 12.8 12.8C10.6667 12.8 10.6667 10.6667 10.6667 10.6667C10.6667 10.6667 10.6667 12.8 8.53333 12.8C6.4 12.8 6.4 10.6667 6.4 10.6667C6.4 10.6667 6.4 12.8 4.26667 12.8C2.13333 12.8 2.13333 10.6667 2.13333 10.6667V7.46667ZM2.13333 24.5333V21.3333C2.13333 21.3333 2.13333 19.2 4.26667 19.2C6.4 19.2 6.4 21.3333 6.4 21.3333C6.4 21.3333 6.4 19.2 8.53333 19.2C10.6667 19.2 10.6667 21.3333 10.6667 21.3333C10.6667 21.3333 10.6667 19.2 12.8 19.2C14.9333 19.2 14.9333 21.3333 14.9333 21.3333C14.9333 21.3333 14.9333 19.2 17.0667 19.2C19.2 19.2 19.2 21.3333 19.2 21.3333V24.5333C19.2 25.6 17.0667 25.6 17.0667 24.5333V21.8667C14.9333 21.8667 15.4667 24 14.9333 24C14.4 24 14.9333 21.8667 12.8 21.8667C10.6667 21.8667 11.2 24 10.6667 24C10.1333 24 10.6667 21.8667 8.53333 21.8667C6.4 21.8667 6.93333 24 6.4 24C5.86667 24 6.4 21.8667 4.26667 21.8667V24.5333C4.26667 25.6 2.13333 25.6 2.13333 24.5333ZM2.13333 14.9333V17.0667H19.2V14.9333H2.13333ZM18.1333 2.13333C18.6667 2.13333 19.2 2.66667 19.2 3.2C19.2 3.73333 18.6667 4.26667 18.1333 4.26667C17.6 4.26667 17.0667 3.73333 17.0667 3.2C17.0667 2.66667 17.6 2.13333 18.1333 2.13333ZM18.1333 0C16.5333 0 14.9333 1.6 14.9333 3.2C14.9333 4.8 16.5333 6.4 18.1333 6.4C19.7333 6.4 21.3333 4.8 21.3333 3.2C21.3333 1.6 19.7333 0 18.1333 0ZM3.2 2.13333C3.73333 2.13333 4.26667 2.66667 4.26667 3.2C4.26667 3.73333 3.73333 4.26667 3.2 4.26667C2.66667 4.26667 2.13333 3.73333 2.13333 3.2C2.13333 2.66667 2.66667 2.13333 3.2 2.13333ZM3.2 0C1.6 0 0 1.6 0 3.2C0 4.8 1.6 6.4 3.2 6.4C4.8 6.4 6.4 4.8 6.4 3.2C6.4 1.6 4.8 0 3.2 0ZM18.1333 27.7333C18.6667 27.7333 19.2 28.2667 19.2 28.8C19.2 29.3333 18.6667 29.8667 18.1333 29.8667C17.6 29.8667 17.0667 29.3333 17.0667 28.8C17.0667 28.2667 17.6 27.7333 18.1333 27.7333ZM18.1333 25.6C16.5333 25.6 14.9333 27.2 14.9333 28.8C14.9333 30.4 16.5333 32 18.1333 32C19.7333 32 21.3333 30.4 21.3333 28.8C21.3333 27.2 19.7333 25.6 18.1333 25.6ZM3.2 27.7333C3.73333 27.7333 4.26667 28.2667 4.26667 28.8C4.26667 29.3333 3.73333 29.8667 3.2 29.8667C2.66667 29.8667 2.13333 29.3333 2.13333 28.8C2.13333 28.2667 2.66667 27.7333 3.2 27.7333ZM3.2 25.6C1.6 25.6 0 27.2 0 28.8C0 30.4 1.6 32 3.2 32C4.8 32 6.4 30.4 6.4 28.8C6.4 27.2 4.8 25.6 3.2 25.6Z" fill="#00A63E"/>
</svg>
